<svg version="1.1" id="Layer_1" xmlns="http://www.w3.org/2000/svg" xmlns:xlink="http://www.w3.org/1999/xlink" x="0px" y="0px"
	 width="100%" viewBox="0 0 1024 320" enable-background="new 0 0 1024 320" xml:space="preserve">
<path fill="#e6c49a" opacity="1.000000" stroke="none" 
	d="
M572.492126,240.354187 
	C560.690430,257.917603 544.783997,268.293732 523.792786,268.952545 
	C496.578400,269.806671 472.398407,249.725281 465.202026,221.444336 
	C456.311768,186.506714 478.210999,151.531006 510.694702,143.971329 
	C530.822693,139.287125 556.052307,148.253220 568.674622,165.948257 
	C585.640686,189.732819 587.066711,214.491486 572.492126,240.354187 
M565.393799,236.878143 
	C578.196472,216.319702 577.467102,189.727661 563.221680,171.693161 
	C549.693726,154.567017 531.986572,147.259064 510.610107,152.660202 
	C488.847534,158.158920 476.968536,173.616913 472.438507,195.079727 
	C471.207825,200.910706 472.178589,201.863770 478.041412,201.876801 
	C487.537598,201.897903 497.033813,201.874847 506.530029,201.873199 
	C514.193542,201.871857 521.858704,201.781525 529.519958,201.913620 
	C533.536316,201.982864 535.597107,205.139618 533.795532,208.143799 
	C532.547180,210.225555 530.349670,209.908356 528.398865,209.910492 
	C511.072784,209.929489 493.746613,209.898132 476.420502,209.892242 
	C475.130798,209.891800 473.750916,209.365952 472.478210,210.562012 
	C471.803894,211.848816 472.047760,213.376450 472.249329,214.822937 
	C475.365784,237.186050 492.318970,258.470276 518.644348,260.627838 
	C538.372314,262.244659 553.805908,253.742920 565.393799,236.878143 
z"/>
<path fill="#e6c49a" opacity="1.000000" stroke="none" 
	d="
M643.889771,215.082474 
	C630.158936,196.692657 616.631714,178.593979 603.104431,160.495285 
	C602.763489,160.555008 602.422546,160.614731 602.081604,160.674454 
	C602.081604,162.748856 602.080750,164.823273 602.081665,166.897675 
	C602.095215,197.214890 602.108887,227.532089 602.122742,257.849304 
	C602.122803,258.015869 602.141724,258.184235 602.124084,258.348755 
	C601.791626,261.448425 603.152588,265.802765 597.974487,265.832947 
	C592.702881,265.863708 593.922180,261.482758 593.917053,258.398621 
	C593.859802,223.584335 593.859070,188.769806 593.955017,153.955673 
	C593.962585,151.199188 592.597961,147.497955 596.537659,146.175613 
	C600.651062,144.795013 603.341553,147.066071 605.742126,150.309723 
	C629.121826,181.899979 652.586060,213.427704 676.031250,244.969421 
	C677.502014,246.948105 679.015747,248.894791 680.767517,251.195145 
	C682.239197,249.147202 681.724548,247.299210 681.726868,245.613510 
	C681.769653,214.796600 681.768555,183.979614 681.779358,153.162659 
	C681.779724,151.996857 681.796448,150.830887 681.821045,149.665314 
	C681.879089,146.913620 683.467529,145.898743 686.028748,145.868362 
	C688.756836,145.836014 689.974487,147.239792 690.044678,149.842529 
	C690.071594,150.841522 690.095886,151.840988 690.096130,152.840240 
	C690.104919,187.821609 690.144531,222.803085 690.054688,257.784210 
	C690.047241,260.681519 691.389465,264.614105 687.048584,265.798126 
	C683.104126,266.874054 680.649902,264.580078 678.376404,261.481995 
	C667.045593,246.041428 655.538513,230.730270 643.889771,215.082474 
z"/>
<path fill="#e6c49a" opacity="1.000000" stroke="none" 
	d="
M367.282532,153.748352 
	C391.561523,186.283249 415.628418,218.529922 439.840576,250.971222 
	C441.569824,248.913849 440.937164,247.022476 440.938446,245.298492 
	C440.961487,214.318329 440.934998,183.338120 440.920563,152.357925 
	C440.920166,151.525284 440.923035,150.692291 440.945526,149.860046 
	C441.015381,147.276886 442.190582,145.838531 444.931671,145.848282 
	C447.524292,145.857498 449.051392,146.936661 449.139984,149.650101 
	C449.178040,150.814972 449.192596,151.981094 449.192841,153.146652 
	C449.200043,187.957825 449.235107,222.769073 449.151947,257.580048 
	C449.144989,260.482269 450.605591,264.348145 446.260590,265.648376 
	C442.197083,266.864380 439.915771,264.336731 437.665100,261.305084 
	C413.345825,228.547180 388.937439,195.855438 364.516022,163.173538 
	C363.782501,162.191910 363.317932,160.783249 361.217529,160.452225 
	C361.217529,162.690506 361.217072,164.793091 361.217590,166.895691 
	C361.225067,197.376312 361.234039,227.856934 361.235931,258.337555 
	C361.236053,259.835510 361.252869,261.340271 361.123199,262.829803 
	C360.923401,265.124939 359.379303,265.924866 357.305603,265.838593 
	C355.253632,265.753204 353.757111,264.902344 353.712372,262.565582 
	C353.658142,259.734894 353.614746,256.903748 353.600677,254.072617 
	C353.466614,227.097504 353.310394,200.122421 353.230164,173.147125 
	C353.208374,165.824509 353.420288,158.501160 353.528656,151.178207 
	C353.557281,149.245285 352.864624,146.852753 355.530914,146.175369 
	C357.953186,145.559998 360.565155,145.279495 362.467896,147.549591 
	C364.070892,149.462112 365.541321,151.485718 367.282532,153.748352 
z"/>
<path fill="#e6c49a" opacity="1.000000" stroke="none" 
	d="
M221.757660,204.085632 
	C222.554306,174.209457 241.882141,149.702469 270.612701,143.837311 
	C291.852600,139.501312 310.029480,146.787888 324.509033,162.875946 
	C351.270782,192.610611 344.231323,240.223358 310.100769,260.848572 
	C285.461548,275.738159 253.284714,269.250580 235.423645,245.962601 
	C226.022583,233.705154 221.696365,219.886673 221.757660,204.085632 
M240.746063,171.248245 
	C226.670975,191.291489 225.331726,212.303986 236.616455,233.889313 
	C251.019913,261.440063 286.492065,269.465881 311.067017,250.477585 
	C328.311554,237.153244 335.146484,219.061829 331.917023,197.484924 
	C328.548370,174.978195 316.278076,159.187439 294.243530,152.959763 
	C273.085052,146.979706 255.233932,153.880692 240.746063,171.248245 
z"/>
<path fill="#e6c49a" opacity="1.000000" stroke="none" 
	d="
M721.612793,158.599899 
	C752.465881,130.262589 794.396973,144.061676 807.846741,168.566864 
	C803.544495,170.306610 800.088257,169.721176 796.771912,166.294098 
	C786.357605,155.531830 773.640869,150.513947 758.580994,151.060837 
	C734.637451,151.930313 712.587830,172.595306 710.243835,196.525040 
	C709.866089,200.382355 710.983765,201.952103 715.070007,201.917175 
	C732.233948,201.770401 749.399963,201.839615 766.565063,201.886810 
	C768.631042,201.892487 771.055420,201.254288 772.284607,203.819290 
	C773.812195,207.006729 771.811401,209.837204 767.673767,209.884705 
	C756.842773,210.009033 746.009644,209.947220 735.177368,209.952682 
	C728.511353,209.956039 721.841431,210.082550 715.180786,209.891937 
	C711.198364,209.777969 709.898743,211.336441 710.230164,215.254593 
	C711.798218,233.789810 728.700989,253.830109 746.866882,258.758942 
	C766.370361,264.050690 783.015930,259.197449 797.204163,245.091141 
	C798.027161,244.272903 798.807068,243.315857 799.800049,242.783264 
	C802.130432,241.533386 805.008362,241.059875 806.831848,242.921036 
	C809.009888,245.144119 806.126587,246.793777 804.900391,248.277603 
	C778.220215,280.563110 727.871643,273.897430 708.603271,235.573929 
	C695.367065,209.248062 700.261169,179.794342 721.612793,158.599899 
z"/>
</svg>